<svg xmlns="http://www.w3.org/2000/svg" height="512pt" version="1.1" viewBox="0 -16 512 512" width="512pt">
<g id="surface1">
<path d="M 256 90 C 247.976562 90 229.449219 121.644531 226.578125 180 L 285.417969 180 C 282.550781 121.644531 264.023438 90 256 90 Z M 256 90 " style=" stroke:none;fill-rule:nonzero;fill:rgb(0%,0%,0%);fill-opacity:1;" />
<path d="M 359.484375 180 C 354.296875 144.207031 331.28125 114.285156 299.480469 99.707031 C 308.765625 121.664062 314.058594 150.316406 315.421875 180 Z M 359.484375 180 " style=" stroke:none;fill-rule:nonzero;fill:rgb(0%,0%,0%);fill-opacity:1;" />
<path d="M 256 300 C 264.023438 300 282.550781 268.355469 285.421875 210 L 226.578125 210 C 229.449219 268.355469 247.976562 300 256 300 Z M 256 300 " style=" stroke:none;fill-rule:nonzero;fill:rgb(0%,0%,0%);fill-opacity:1;" />
<path d="M 212.519531 99.707031 C 180.71875 114.285156 157.703125 144.207031 152.515625 180 L 196.578125 180 C 197.941406 150.316406 203.234375 121.664062 212.519531 99.707031 Z M 212.519531 99.707031 " style=" stroke:none;fill-rule:nonzero;fill:rgb(0%,0%,0%);fill-opacity:1;" />
<path d="M 212.519531 290.292969 C 203.234375 268.335938 197.941406 239.683594 196.578125 210 L 152.515625 210 C 157.703125 245.792969 180.71875 275.714844 212.519531 290.292969 Z M 212.519531 290.292969 " style=" stroke:none;fill-rule:nonzero;fill:rgb(0%,0%,0%);fill-opacity:1;" />
<path d="M 359.484375 210 L 315.421875 210 C 314.058594 239.683594 308.765625 268.335938 299.480469 290.292969 C 331.28125 275.714844 354.296875 245.792969 359.484375 210 Z M 359.484375 210 " style=" stroke:none;fill-rule:nonzero;fill:rgb(0%,0%,0%);fill-opacity:1;" />
<path d="M 0 390 L 512 390 L 512 0 L 0 0 Z M 256 60 C 330.441406 60 391 120.558594 391 195 C 391 269.441406 330.441406 330 256 330 C 181.558594 330 121 269.441406 121 195 C 121 120.558594 181.558594 60 256 60 Z M 256 60 " style=" stroke:none;fill-rule:nonzero;fill:rgb(0%,0%,0%);fill-opacity:1;" />
<path d="M 316.804688 420 L 195.195312 420 L 185.195312 450 L 121 450 L 121 480 L 391 480 L 391 450 L 326.804688 450 Z M 316.804688 420 " style=" stroke:none;fill-rule:nonzero;fill:rgb(0%,0%,0%);fill-opacity:1;" />
</g>
</svg>